<?xml version="1.0" encoding="UTF-8" standalone="no"?>
<!-- Created with Inkscape (http://www.inkscape.org/) -->

<svg
   version="1.1"
   id="svg2"
   width="380"
   height="97.013336"
   viewBox="0 0 380 97.013336"
   sodipodi:docname="FoundersIns_Logo_Color_OnLight.eps"
   xmlns:inkscape="http://www.inkscape.org/namespaces/inkscape"
   xmlns:sodipodi="http://sodipodi.sourceforge.net/DTD/sodipodi-0.dtd"
   xmlns="http://www.w3.org/2000/svg"
   xmlns:svg="http://www.w3.org/2000/svg">
  <defs
     id="defs6" />
  <sodipodi:namedview
     id="namedview4"
     pagecolor="#ffffff"
     bordercolor="#000000"
     borderopacity="0.25"
     inkscape:showpageshadow="2"
     inkscape:pageopacity="0.0"
     inkscape:pagecheckerboard="0"
     inkscape:deskcolor="#d1d1d1" />
  <g
     id="g8"
     inkscape:groupmode="layer"
     inkscape:label="ink_ext_XXXXXX"
     transform="matrix(1.3333333,0,0,-1.3333333,0,97.013333)">
    <g
       id="g10"
       transform="scale(0.1)">
      <path
         d="m 359.082,727.59 c 83.34,0.203 160.164,-27.914 221.293,-75.473 -48.637,28.184 -105.172,44.274 -165.328,44.125 C 233.918,695.793 87.3789,548.711 87.5078,367.535 c 0,-0.199 -0.0156,-0.394 -0.0117,-0.597 0.125,-50.883 11.8359,-99.051 32.5669,-141.954 21.75,-11.66 45.429,-15.265 71.425,-16.296 91.473,-3.797 168.7,-38.977 232.223,-102.907 -52.289,-24.406 -102.32,-1.195 -138.305,20.407 29.153,-44.9536 71.528,-57.4185 118.024,-59.3794 26.968,-1.1875 54.011,-0.0313 81.011,0.6133 7.086,0.1679 14.164,0.3359 21.239,0.3711 6.289,0.082 12.648,0.3047 18.836,-0.2539 53.371,-4.836 30.082,-30.0586 -4.926,-42.2188 C 317.461,-44.8945 103.727,32.5 24.125,237.898 8.62109,277.898 0.113281,321.324 0,366.723 -0.492188,565.617 160.305,727.09 359.082,727.59"
         style="fill:#306ea9;fill-opacity:1;fill-rule:nonzero;stroke:none"
         id="path12" />
      <path
         d="M 589.289,301.172 H 129.832 c 3.957,-17.078 9.449,-33.797 16.449,-49.984 14.774,-5.555 30.989,-7.133 46.633,-7.774 80.793,-3.316 153.508,-28.98 217.191,-79.074 7.473,-5.875 14.735,-12.012 21.778,-18.395 5.613,-5.09 11.137,-10.289 16.48,-15.668 l 28.114,-28.293 c 2.378,0.067 4.757,0.129 7.132,0.184 7.239,0.172 14.477,0.305 21.715,0.383 17.395,0.176 32.293,0.308 48.528,-6.9416 1.086,-0.461 2.156,-0.9531 3.207,-1.4688 33.214,41.0704 53.507,121.5274 63.14,169.1484 3.965,19.602 -10.91,37.883 -30.91,37.883"
         style="fill:#67be77;fill-opacity:1;fill-rule:evenodd;stroke:none"
         id="path14" />
      <path
         d="M 350.348,316.301 H 126.746 c -2.758,15.629 -4.258,31.504 -4.469,47.492 h 228.071 253.25 c 13.117,0 23.746,-10.633 23.746,-23.742 0,-13.121 -10.629,-23.75 -23.746,-23.75 h -253.25"
         style="fill:#67be77;fill-opacity:1;fill-rule:evenodd;stroke:none"
         id="path16" />
      <path
         d="m 542.68,384.059 36.082,81.175 c 25.551,5.336 44.75,27.985 44.75,55.121 0,31.114 -25.215,56.333 -56.324,56.333 -31.106,0 -56.329,-25.219 -56.329,-56.333 0,-11.078 3.254,-21.386 8.782,-30.101 L 441.207,384.059 H 542.68"
         style="fill:#67be77;fill-opacity:1;fill-rule:nonzero;stroke:none"
         id="path18" />
      <path
         d="m 816.207,509.984 c 0.16,57.754 0.191,68.391 -0.531,80.547 -0.723,12.926 -3.746,19.016 -16.278,21.711 -3.039,0.766 -9.496,1.16 -14.812,1.18 -3.801,0.012 -6.461,0.777 -6.457,3.058 0.012,3.036 3.059,3.79 8.758,3.774 17.472,-0.047 34.949,-1.238 54.699,-1.297 14.441,-0.039 91.57,-0.262 100.305,0.098 7.222,0.359 11.781,0.351 15.586,1.472 2.281,0.758 4.183,2.27 6.082,2.266 1.519,-0.004 2.652,-1.527 2.648,-3.426 -0.004,-2.66 -1.918,-7.215 -3.086,-17.09 -0.391,-3.8 -1.215,-26.211 -1.984,-30.769 -0.391,-3.039 -1.157,-5.317 -3.813,-5.313 -2.66,0.012 -3.418,1.91 -3.781,6.094 0.008,3.043 0.023,9.121 -2.242,14.445 -2.645,5.321 -10.606,11.051 -25.047,11.469 -13.293,0.414 -47.113,0.895 -58.504,1.305 -2.281,0.008 -3.422,-1.129 -3.434,-5.309 l -0.269,-94.988 c -0.008,-2.277 0.367,-3.418 2.648,-3.426 10.258,-0.027 34.957,0.281 48.633,0.246 22.035,-0.062 28.113,-0.082 33.457,7.117 1.903,2.278 2.664,3.797 4.945,3.786 1.524,-0.004 2.282,-1.141 2.274,-3.422 -0.008,-2.282 -1.938,-11.774 -3.102,-23.547 -0.789,-7.598 -1.597,-25.07 -1.609,-27.727 -0.004,-3.425 -0.02,-7.222 -3.816,-7.215 -2.278,0.008 -3.028,2.672 -3.024,5.329 0.012,2.66 -0.738,7.222 -2.246,11.789 -1.883,5.32 -7.562,12.175 -19.336,13.73 -9.496,1.164 -49.769,1.277 -56.23,1.297 -1.899,0.004 -2.661,-0.75 -2.664,-3.414 l -0.09,-30.774 c -0.102,-36.472 -0.184,-64.968 1.672,-80.929 1.109,-11.02 3.363,-19.391 14.754,-20.942 5.324,-0.773 13.675,-1.554 18.996,-1.574 4.941,-0.008 6.453,-1.152 6.449,-3.055 -0.004,-2.656 -2.672,-3.789 -8.371,-3.769 -23.934,0.066 -47.864,1.269 -57.746,1.297 -9.879,0.031 -33.817,-1.043 -48.254,-1.004 -5.317,0.019 -7.973,0.781 -7.969,3.828 0.004,1.895 1.527,3.027 5.711,3.016 5.699,-0.02 10.262,0.734 13.684,1.484 7.605,1.496 9.527,9.856 11.074,20.867 1.945,15.949 2.027,44.446 2.129,80.918 l 0.191,66.867"
         style="fill:#306ea9;fill-opacity:1;fill-rule:nonzero;stroke:none"
         id="path20" />
      <path
         d="m 1221.08,447.668 c 0.19,68.77 -39.18,115.996 -94.66,116.152 -37.23,0.106 -79.08,-18.769 -79.31,-98.562 -0.18,-66.102 35.76,-119.403 98.83,-119.578 23.18,-0.071 74.88,9.285 75.14,101.988 z m -223.01,6.711 c 0.164,56.992 38.35,126.793 138.28,126.516 83.59,-0.239 134.36,-51.676 134.16,-121.207 -0.21,-74.083 -52.43,-132.067 -137.91,-131.833 -95.37,0.274 -134.69,69.161 -134.53,126.524"
         style="fill:#306ea9;fill-opacity:1;fill-rule:nonzero;stroke:none"
         id="path22" />
      <path
         d="m 1384.84,436.188 c -0.13,-46.731 8.94,-66.133 26,-79.098 14.4,-11.059 29.21,-12.242 39.85,-12.27 14.06,-0.039 31.55,3.711 44.5,16.211 18.67,17.422 19.13,47.438 19.23,80.489 l 0.12,40.273 c 0.13,48.633 -0.61,56.617 -0.96,66.875 -0.72,11.02 -2.61,16.344 -13.62,18.277 -2.66,0.766 -7.6,1.16 -12.16,1.551 -3.8,0.012 -5.69,1.156 -5.69,3.438 0,2.281 1.91,3.414 7.23,3.398 17.1,-0.047 38.37,-1.246 39.51,-1.25 4.56,-0.016 25.46,1.066 39.14,1.027 4.94,-0.011 7.21,-1.16 7.21,-3.437 -0.01,-2.281 -1.91,-3.418 -6.09,-3.406 -3.8,-0.364 -5.7,-0.36 -9.89,-1.493 -8.74,-1.488 -11.03,-6.425 -11.82,-17.824 -0.79,-10.254 -1.19,-18.613 -1.33,-67.246 l -0.1,-34.191 c -0.11,-36.09 -3.63,-74.453 -32.58,-97.938 -23.22,-18.926 -47.54,-22.656 -69.58,-22.597 -19.76,0.058 -51.67,2.05 -75.17,22.636 -17.06,14.481 -29.9,38.078 -29.77,85.188 l 0.13,47.488 c 0.14,49.395 0.17,56.992 -0.57,67.633 -0.73,10.266 -2.99,15.207 -13.24,17.516 -3.05,0.769 -9.12,1.167 -13.68,1.558 -3.79,0.008 -6.07,1.543 -6.07,3.82 0.01,2.278 2.68,3.028 7.99,3.016 17.1,-0.051 40.27,-1.25 49.01,-1.277 7.22,-0.024 31.92,1.047 43.7,1.011 5.32,-0.015 7.59,-1.156 7.59,-3.437 -0.01,-2.281 -2.29,-3.418 -5.71,-3.406 -3.42,-0.368 -6.09,-0.739 -9.88,-1.493 -9.13,-1.492 -11.81,-7.179 -12.22,-18.203 -0.79,-10.257 -0.81,-19.754 -0.94,-66.867 l -0.14,-45.972"
         style="fill:#306ea9;fill-opacity:1;fill-rule:nonzero;stroke:none"
         id="path24" />
      <path
         d="m 1634.88,568.461 c 0.02,7.223 1.17,11.773 4.97,11.766 3.42,-0.012 6.45,-3.821 12.13,-9.532 6.06,-5.34 50.39,-51.441 104.58,-102.507 24.63,-23.622 67.05,-67.051 73.11,-72.391 l -2.63,140.586 c -0.33,19.375 -2.97,25.844 -12.07,29.285 -4.94,1.539 -12.54,1.562 -17.09,1.949 -4.18,0.016 -5.7,1.914 -5.7,3.821 0.01,2.656 3.81,3.027 8.37,3.015 16.72,-0.047 33.81,-1.234 42.17,-1.258 4.18,-0.011 17.86,1.086 33.82,1.043 4.18,-0.015 7.22,-0.785 7.21,-3.441 0,-1.899 -1.53,-3.418 -5.71,-3.402 -3.43,-0.368 -6.08,-0.364 -9.51,-1.114 -9.88,-2.633 -12.94,-9.082 -13.37,-27.32 -1.66,-48.629 -2.65,-133.352 -3.98,-200.977 -0.03,-8.742 -1.95,-11.777 -4.98,-11.769 -4.18,0.012 -9.11,4.211 -16.31,10.683 -21.22,19.45 -61.76,58.692 -93.2,89.176 -33.35,31.25 -70.47,70.864 -79.57,80.395 l 3.05,-131.844 c 0.69,-24.707 4.46,-32.695 11.29,-34.992 5.69,-1.914 12.16,-1.934 17.85,-2.332 3.43,-0.012 5.71,-1.153 5.7,-3.059 0,-2.656 -3.05,-3.789 -7.61,-3.769 -19.76,0.05 -33.05,1.23 -41.79,1.25 -4.18,0.011 -21.66,-1.075 -38,-1.024 -4.18,0.008 -7.22,0.391 -7.21,3.438 0.01,1.894 1.91,3.406 5.33,3.398 4.18,0.371 9.88,0.352 14.44,1.485 9.51,2.625 11.05,10.984 11.52,39.101 0.94,68.383 3.07,147.789 3.19,190.34"
         style="fill:#306ea9;fill-opacity:1;fill-rule:nonzero;stroke:none"
         id="path26" />
      <path
         d="m 1997.81,444.711 c -0.1,-34.188 0.21,-58.129 0.57,-64.207 0.36,-9.121 0.71,-19 4.12,-24.332 3.78,-6.09 17.81,-12.582 42.12,-12.652 31.93,-0.098 52.84,5.929 72.65,22.968 20.94,17.422 27.1,45.899 27.2,78.946 0.11,38.757 -16.53,64.265 -30.94,78.738 -28.8,28.195 -64.87,32.859 -89.95,32.93 -6.85,0.019 -19,-1.086 -21.29,-2.977 -3.43,-2.648 -4.19,-3.41 -4.37,-69.52 z m -44.74,35.84 c 0.14,48.633 0.17,56.992 -0.56,67.254 -0.74,10.644 -2.99,17.484 -14.4,18.66 l -12.91,1.172 c -3.8,0.015 -5.69,1.164 -5.69,3.445 0.01,2.273 2.29,3.023 7.23,3.012 15.96,-0.047 38.75,-1.246 49.01,-1.278 11.01,-0.027 30.4,1.051 52.44,0.993 44.83,-0.125 96.49,-1.793 132.11,-37.614 16.67,-16.386 32.18,-43.402 32.07,-82.156 -0.12,-40.269 -18.07,-70.992 -36.73,-89.562 -15.62,-15.157 -48.36,-37.86 -111.05,-37.676 -24.32,0.07 -54.33,3.945 -70.67,3.996 -9.11,0.027 -29.64,-1.055 -43.69,-1.016 -4.56,0.02 -6.45,1.16 -6.45,3.438 0,1.523 1.91,3.418 5.71,3.398 3.8,-0.012 7.6,0.36 11.78,1.113 12.92,2.247 11.5,34.922 11.65,85.836 l 0.15,56.985"
         style="fill:#306ea9;fill-opacity:1;fill-rule:nonzero;stroke:none"
         id="path28" />
      <path
         d="m 2263.91,479.672 c 0.14,49.394 0.16,58.133 -0.57,68.769 -0.73,10.645 -3.37,14.832 -13.63,17.141 -3.03,0.766 -8.36,0.781 -12.92,1.176 -3.8,0.012 -5.69,1.156 -5.68,3.437 0,2.278 2.28,3.032 7.61,3.02 15.95,-0.051 31.15,-1.227 47.87,-1.277 10.25,-0.028 79.77,-0.223 85.86,0.132 6.46,0.743 12.16,1.489 15.2,1.856 1.91,0.375 3.8,1.515 5.32,1.508 1.9,-0.004 2.28,-1.528 2.27,-3.047 0,-2.278 -2.3,-6.828 -3.09,-20.508 -0.4,-6.078 -0.8,-12.539 -1.59,-22.41 0,-1.899 -0.77,-5.317 -3.81,-5.309 -2.28,0.004 -3.03,1.91 -3.4,6.09 0.01,1.52 0.01,6.461 -1.87,10.645 -2.27,6.082 -5.29,9.511 -21.62,11.453 -6.47,0.781 -40.66,1.636 -48.25,1.656 -1.53,0.004 -2.29,-1.129 -2.3,-3.406 l -0.22,-78.649 c 0,-2.281 0.37,-3.422 2.27,-3.429 7.98,-0.02 44.46,-0.122 52.82,0.23 9.5,0.734 14.44,1.855 17.49,5.273 2.29,3.028 3.81,4.165 5.33,4.165 1.52,-0.004 2.27,-0.77 2.27,-2.668 -0.01,-2.282 -1.54,-9.493 -2.73,-25.071 -0.02,-6.453 -1.19,-20.133 -1.2,-22.789 -0.01,-2.66 -0.4,-6.074 -3.44,-6.066 -2.28,0.008 -3.41,3.426 -3.41,5.324 -0.37,3.043 -0.36,4.941 -1.11,8.742 -1.88,7.223 -5.67,12.172 -18.96,13.348 -6.83,0.781 -38.75,1.258 -47.11,1.277 -1.9,0.004 -2.28,-1.515 -2.29,-3.414 l -0.07,-24.691 c -0.03,-11.016 -0.49,-37.614 -0.14,-47.492 0.71,-22.426 5.63,-27.379 40.58,-27.477 8.74,-0.027 22.8,-0.066 31.17,3.711 8.75,4.156 12.57,10.605 15.27,24.277 0.77,3.418 1.53,5.313 4.2,5.309 2.65,-0.008 2.64,-3.051 2.63,-6.469 -0.02,-8.359 -2.74,-31.523 -4.67,-37.98 -2.29,-8.36 -5.34,-8.348 -17.88,-8.309 -33.04,0.086 -61.54,2.07 -95.35,2.168 -13.68,0.039 -27.36,-1.066 -43.32,-1.016 -4.56,0.008 -6.83,1.161 -6.83,3.438 0,1.523 1.15,3.418 5.71,3.398 4.56,0.371 8.74,0.36 11.79,1.114 6.84,1.503 8.75,8.711 9.93,20.113 1.56,13.289 1.63,37.988 1.71,65.723 l 0.16,56.984"
         style="fill:#306ea9;fill-opacity:1;fill-rule:nonzero;stroke:none"
         id="path30" />
      <path
         d="m 2522.98,454.242 c -0.01,-3.035 0.76,-4.558 3.03,-5.324 6.84,-2.684 16.71,-3.848 25.45,-3.875 12.16,-0.031 17.48,1.473 23.18,5.637 9.53,6.812 18.69,20.843 18.75,46.679 0.14,45.973 -31.36,58.219 -50.36,58.27 -7.98,0.027 -14.06,-0.34 -17.11,-1.469 -1.89,-0.758 -2.65,-1.89 -2.66,-4.551 z m -42.86,24.821 c 0.14,49.394 0.16,56.613 -0.57,66.871 -0.73,11.402 -3.75,16.347 -14.01,18.277 -4.18,0.773 -8.73,1.164 -12.91,1.555 -3.8,0.011 -5.7,1.16 -5.69,3.441 0.01,2.277 2.29,3.41 7.24,3.395 17.09,-0.047 40.26,-1.254 46.72,-1.27 10.26,-0.027 37.24,1.031 48.64,1 22.79,-0.066 45.2,-2.41 62.27,-13.473 10.62,-6.871 24.63,-23.25 24.57,-45.285 -0.07,-24.316 -11.53,-45.937 -44.66,-70.543 28.02,-35.027 51.49,-65.109 71.2,-85.304 18.17,-19.43 30.71,-20.985 36.78,-22.528 3.42,-0.39 6.08,-0.39 8.74,-0.781 3.04,-0.008 4.55,-1.531 4.55,-3.055 -0.01,-2.656 -2.29,-3.789 -6.47,-3.781 l -31.91,0.098 c -22.04,0.058 -31.54,2.363 -41.02,7.324 -13.28,7.258 -25.77,22.117 -43.18,46.101 -13.63,19.036 -27.62,39.219 -32.55,44.926 -1.14,1.524 -3.03,1.91 -5.32,1.918 l -26.97,0.836 c -1.52,0.004 -2.65,-0.754 -2.66,-2.652 l -0.02,-6.836 c -0.08,-29.258 -0.15,-51.676 1.33,-64.977 0.74,-9.511 2.99,-16.726 13.25,-17.898 4.56,-1.152 11.39,-1.172 15.95,-1.563 3.04,-0.011 4.17,-1.535 4.17,-3.058 -0.01,-2.274 -2.28,-3.789 -6.46,-3.778 -20.14,0.059 -46.73,1.27 -51.67,1.29 -5.7,0.007 -28.89,-1.055 -42.18,-1.016 -4.18,0.008 -6.45,1.152 -6.45,3.426 0.01,1.523 1.53,3.418 5.33,3.41 4.94,0.359 9.12,0.351 12.16,1.101 6.46,1.504 8.77,8.332 9.55,18.219 1.94,13.293 2.01,37.61 2.1,67.621 l 0.15,56.989"
         style="fill:#306ea9;fill-opacity:1;fill-rule:nonzero;stroke:none"
         id="path32" />
      <path
         d="m 2713.02,331.742 c -5.31,2.297 -6.44,4.582 -6.42,11.035 0.05,19.387 1.24,38.375 1.64,44.075 0.4,5.32 1.54,8.355 4.2,8.347 3.03,-0.008 3.42,-2.668 3.79,-5.324 0.37,-4.187 0.35,-9.883 2.23,-15.211 6.77,-24.719 27.64,-35.031 49.29,-35.09 30.39,-0.086 44.13,18.489 44.18,35.207 0.04,15.199 -4.48,29.649 -32.54,50.242 l -15.92,12.2 c -37.54,28.601 -49.63,50.297 -49.56,76.89 0.11,35.719 30.96,62.227 78.45,62.094 15.19,-0.043 24.31,-1.969 33.8,-3.519 5.32,-0.774 9.87,-1.93 13.67,-2.317 3.05,-0.391 3.8,-1.91 3.79,-4.187 -0.01,-5.325 -1.56,-14.434 -1.63,-40.274 -0.02,-7.219 -1.16,-9.875 -3.83,-9.871 -2.28,0.008 -3.41,2.293 -3.78,6.473 -0.37,4.183 -2.63,13.308 -7.54,20.539 -5.68,8.758 -16.29,17.144 -37.95,17.207 -25.07,0.07 -39.55,-13.567 -39.6,-32.18 -0.04,-14.062 6.76,-26.617 34.07,-45.312 l 10.61,-7.254 c 42.47,-28.992 56.08,-51.446 56,-82.219 -0.05,-19.758 -8.48,-42.156 -32.84,-57.281 -17.12,-10.215 -36.51,-12.813 -53.98,-12.766 -20.52,0.059 -35.71,2.383 -50.13,8.496"
         style="fill:#306ea9;fill-opacity:1;fill-rule:nonzero;stroke:none"
         id="path34" />
      <path
         d="m 815.754,215.992 c 0.082,30.223 0.101,35.789 -0.285,42.156 -0.375,6.758 -2.352,10.149 -6.723,11.153 -2.187,0.605 -4.769,0.801 -7.16,0.812 -1.984,0.008 -3.176,0.41 -3.172,2 0.004,1.192 1.59,1.582 4.774,1.582 7.554,-0.027 20.078,-0.652 25.847,-0.672 4.969,-0.011 16.703,0.547 24.258,0.528 2.582,-0.012 4.172,-0.41 4.168,-1.602 -0.004,-1.594 -1.195,-1.992 -3.184,-1.984 -1.992,0 -3.578,-0.184 -5.964,-0.586 -5.372,-0.977 -6.973,-4.356 -7.395,-11.297 -0.41,-6.367 -0.43,-11.934 -0.512,-42.16 l -0.097,-34.988 c -0.059,-19.289 -0.102,-34.993 0.668,-43.555 0.582,-5.363 1.964,-8.945 7.929,-9.758 2.785,-0.41 7.149,-0.82 10.133,-0.828 2.188,0 3.184,-0.605 3.18,-1.594 0,-1.394 -1.598,-1.98 -3.785,-1.98 -13.121,0.039 -25.645,0.672 -31.012,0.683 -4.574,0.02 -17.106,-0.547 -25.059,-0.519 -2.582,0 -3.968,0.605 -3.968,2.004 0.003,0.984 0.8,1.582 3.187,1.57 2.981,-0.008 5.371,0.383 7.16,0.781 3.977,0.782 5.18,4.153 5.793,9.922 1.016,8.352 1.063,24.055 1.121,43.34 l 0.098,34.992"
         style="fill:#306ea9;fill-opacity:1;fill-rule:nonzero;stroke:none"
         id="path36" />
      <path
         d="m 894.406,247.582 c 0.012,3.781 0.617,6.164 2.606,6.152 1.789,0 3.375,-2 6.347,-4.988 3.168,-2.785 26.364,-26.906 54.723,-53.633 12.891,-12.363 35.094,-35.097 38.266,-37.89 l -1.383,73.574 c -0.168,10.137 -1.551,13.523 -6.317,15.332 -2.582,0.789 -6.562,0.809 -8.945,1.016 -2.187,0.007 -2.98,0.996 -2.98,1.992 0.007,1.394 1.992,1.59 4.382,1.582 8.743,-0.031 17.696,-0.645 22.065,-0.656 2.19,-0.008 9.35,0.566 17.7,0.539 2.18,0 3.77,-0.411 3.77,-1.797 0,-0.996 -0.8,-1.778 -2.99,-1.778 -1.79,-0.195 -3.18,-0.195 -4.97,-0.586 -5.17,-1.378 -6.77,-4.746 -7,-14.289 -0.87,-25.449 -1.39,-69.793 -2.08,-105.183 -0.02,-4.571 -1.02,-6.164 -2.6,-6.153 -2.19,0.008 -4.77,2.196 -8.539,5.586 -11.109,10.184 -32.324,30.723 -48.781,46.668 -17.446,16.36 -36.875,37.082 -41.629,42.071 l 1.59,-68.993 c 0.363,-12.929 2.339,-17.109 5.914,-18.312 2.98,-0.996 6.359,-1.004 9.34,-1.219 1.789,-0.012 2.98,-0.605 2.976,-1.594 0,-1.394 -1.594,-1.992 -3.98,-1.98 -10.336,0.027 -17.289,0.645 -21.868,0.652 -2.187,0.012 -11.335,-0.554 -19.886,-0.535 -2.188,0.008 -3.778,0.203 -3.774,1.797 0.004,0.996 1,1.785 2.793,1.777 2.184,0.204 5.164,0.196 7.559,0.782 4.976,1.375 5.781,5.75 6.019,20.457 0.5,35.793 1.606,77.343 1.672,99.609"
         style="fill:#306ea9;fill-opacity:1;fill-rule:nonzero;stroke:none"
         id="path38" />
      <path
         d="m 1044.23,124.887 c -2.78,1.191 -3.37,2.394 -3.36,5.773 0.03,10.145 0.65,20.078 0.86,23.055 0.2,2.785 0.81,4.375 2.2,4.375 1.59,-0.008 1.78,-1.406 1.98,-2.793 0.19,-2.188 0.18,-5.164 1.17,-7.957 3.54,-12.93 14.46,-18.332 25.8,-18.371 15.9,-0.039 23.09,9.687 23.11,18.437 0.02,7.949 -2.34,15.508 -17.02,26.289 l -8.33,6.387 c -19.65,14.973 -25.98,26.309 -25.94,40.227 0.06,18.691 16.2,32.566 41.05,32.5 7.96,-0.032 12.72,-1.028 17.69,-1.848 2.78,-0.398 5.16,-1.004 7.16,-1.211 1.58,-0.195 1.98,-0.996 1.98,-2.187 -0.01,-2.782 -0.82,-7.559 -0.86,-21.075 -0.01,-3.777 -0.61,-5.164 -2,-5.156 -1.2,0 -1.79,1.191 -1.98,3.379 -0.19,2.187 -1.37,6.965 -3.95,10.742 -2.97,4.582 -8.52,8.977 -19.85,9.004 -13.12,0.039 -20.7,-7.098 -20.73,-16.836 -0.02,-7.363 3.54,-13.926 17.83,-23.711 l 5.55,-3.797 c 22.23,-15.168 29.36,-26.914 29.31,-43.027 -0.03,-10.332 -4.44,-22.051 -17.18,-29.973 -8.96,-5.351 -19.11,-6.707 -28.26,-6.679 -10.73,0.031 -18.68,1.242 -26.23,4.453"
         style="fill:#306ea9;fill-opacity:1;fill-rule:nonzero;stroke:none"
         id="path40" />
      <path
         d="m 1170.06,177.211 c -0.07,-24.453 4.68,-34.598 13.6,-41.395 7.54,-5.781 15.29,-6.398 20.86,-6.418 7.36,-0.019 16.51,1.934 23.28,8.477 9.78,9.133 10.02,24.824 10.07,42.121 l 0.06,21.082 c 0.07,25.449 -0.32,29.629 -0.5,35 -0.38,5.762 -1.37,8.547 -7.13,9.563 -1.39,0.398 -3.98,0.605 -6.36,0.82 -1.99,0 -2.98,0.594 -2.98,1.785 0.01,1.192 1,1.789 3.78,1.777 8.95,-0.019 20.08,-0.644 20.68,-0.652 2.39,0 13.32,0.555 20.48,0.535 2.58,0 3.78,-0.605 3.77,-1.797 0,-1.191 -1,-1.777 -3.19,-1.777 -1.98,-0.195 -2.98,-0.195 -5.17,-0.781 -4.57,-0.781 -5.77,-3.367 -6.19,-9.324 -0.41,-5.372 -0.62,-9.739 -0.69,-35.188 l -0.05,-17.898 c -0.05,-18.887 -1.9,-38.965 -17.05,-51.243 -12.15,-9.91 -24.88,-11.863 -36.42,-11.835 -10.33,0.031 -27.03,1.074 -39.33,11.847 -8.92,7.578 -15.65,19.922 -15.57,44.578 l 0.06,24.856 c 0.08,25.84 0.09,29.812 -0.29,35.39 -0.38,5.36 -1.57,7.957 -6.93,9.161 -1.59,0.41 -4.78,0.613 -7.16,0.82 -1.99,0.008 -3.18,0.801 -3.18,1.992 0.01,1.191 1.4,1.59 4.18,1.582 8.95,-0.031 21.08,-0.656 25.65,-0.664 3.77,-0.02 16.7,0.547 22.86,0.527 2.78,-0.011 3.98,-0.605 3.97,-1.797 0,-1.191 -1.19,-1.789 -2.99,-1.777 -1.78,-0.207 -3.18,-0.39 -5.16,-0.793 -4.78,-0.769 -6.18,-3.758 -6.39,-9.519 -0.42,-5.371 -0.43,-10.344 -0.5,-34.993 l -0.07,-24.062"
         style="fill:#306ea9;fill-opacity:1;fill-rule:nonzero;stroke:none"
         id="path42" />
      <path
         d="m 1321.05,187.914 c 0,-1.59 0.4,-2.383 1.59,-2.781 3.57,-1.399 8.74,-2.012 13.31,-2.024 6.37,-0.019 9.15,0.762 12.14,2.95 4.98,3.554 9.77,10.91 9.81,24.425 0.07,24.063 -16.42,30.457 -26.36,30.489 -4.17,0.019 -7.35,-0.168 -8.95,-0.762 -0.99,-0.402 -1.39,-0.996 -1.4,-2.395 z m -22.43,13 c 0.08,25.84 0.09,29.617 -0.29,34.988 -0.39,5.969 -1.97,8.555 -7.33,9.563 -2.19,0.41 -4.57,0.605 -6.76,0.82 -1.99,0.008 -2.98,0.606 -2.98,1.797 0.01,1.191 1.2,1.785 3.78,1.777 8.95,-0.031 21.08,-0.656 24.46,-0.664 5.36,-0.019 19.48,0.535 25.45,0.516 11.93,-0.027 23.66,-1.25 32.58,-7.051 5.56,-3.594 12.9,-12.168 12.87,-23.691 -0.04,-12.723 -6.04,-24.043 -23.37,-36.914 14.66,-18.328 26.94,-34.082 37.25,-44.649 9.51,-10.164 16.07,-10.976 19.26,-11.777 1.78,-0.203 3.16,-0.203 4.56,-0.418 1.59,0 2.38,-0.793 2.38,-1.594 0,-1.387 -1.2,-1.98 -3.38,-1.98 l -16.7,0.047 c -11.54,0.039 -16.5,1.242 -21.47,3.847 -6.94,3.801 -13.49,11.563 -22.6,24.114 -7.13,9.96 -14.45,20.515 -17.02,23.515 -0.6,0.789 -1.59,0.996 -2.79,0.996 l -14.11,0.438 c -0.79,0 -1.39,-0.399 -1.4,-1.387 l -0.01,-3.582 c -0.04,-15.312 -0.08,-27.043 0.7,-33.996 0.39,-4.969 1.57,-8.75 6.93,-9.363 2.39,-0.606 5.97,-0.618 8.35,-0.821 1.59,-0.011 2.19,-0.8 2.19,-1.593 0,-1.2 -1.21,-1.993 -3.39,-1.981 -10.54,0.027 -24.45,0.664 -27.03,0.672 -2.99,0.012 -15.12,-0.555 -22.08,-0.535 -2.19,0.008 -3.37,0.605 -3.37,1.797 0,0.8 0.79,1.785 2.78,1.777 2.59,0.203 4.78,0.195 6.37,0.586 3.38,0.789 4.58,4.355 5,9.531 1.01,6.953 1.05,19.676 1.09,35.391 l 0.08,29.824"
         style="fill:#306ea9;fill-opacity:1;fill-rule:nonzero;stroke:none"
         id="path44" />
      <path
         d="m 1483.89,173.344 c 0.99,0 0.99,0.39 0.79,0.996 l -15.39,40.598 c -0.59,1.601 -1.18,1.992 -1.99,0.007 l -15.82,-40.507 c -0.2,-0.606 0,-0.997 0.79,-1.004 z m -35.62,-9.844 c -0.79,0.012 -1.19,-0.391 -1.59,-1.387 l -8.81,-21.648 c -1.6,-4.16 -2.61,-8.34 -2.62,-10.332 -0.01,-4.973 6.15,-5.188 9.93,-5.195 2.38,0 2.98,-0.801 2.97,-1.602 0,-1.387 -1.39,-1.777 -3.17,-1.777 -6.18,0.019 -13.33,0.632 -19.49,0.652 -1.98,0.012 -11.93,-0.555 -21.08,-0.535 -2.19,0.008 -3.18,0.41 -3.18,1.797 0.01,0.996 1,1.785 2.4,1.777 12.52,1.172 15.31,3.543 19.93,15.066 l 42.42,99.485 c 3.61,9.336 5.61,13.105 7.8,13.094 1.59,0 2.57,-1.797 4.55,-6.172 3.35,-9.746 32.58,-77.637 43.65,-103.114 6.32,-14.933 11.28,-17.519 15.46,-18.332 1.78,-0.41 4.76,-0.418 6.56,-0.418 2.18,-0.011 2.98,-0.8 2.97,-1.796 0,-1.192 -0.8,-1.79 -3.38,-1.778 -8.35,0.02 -29.23,-0.324 -41.76,0.516 -1.79,0.195 -2.98,0.605 -2.98,1.601 0.01,0.793 0.8,1.192 1.8,1.575 1.79,0.593 3.18,1.191 2,3.582 l -13.43,33.644 c -0.19,0.789 -0.79,1.192 -1.59,1.192 l -39.36,0.105"
         style="fill:#306ea9;fill-opacity:1;fill-rule:nonzero;stroke:none"
         id="path46" />
      <path
         d="m 1563.87,245.688 c 0.01,3.781 0.62,6.164 2.6,6.152 1.8,0 3.37,-2 6.35,-4.988 3.17,-2.786 26.37,-26.907 54.72,-53.633 12.89,-12.364 35.1,-35.098 38.27,-37.891 l -1.38,73.574 c -0.18,10.137 -1.55,13.524 -6.32,15.332 -2.59,0.789 -6.56,0.809 -8.94,1.016 -2.19,0.008 -2.99,0.996 -2.98,1.992 0,1.395 1.99,1.59 4.37,1.582 8.75,-0.031 17.7,-0.644 22.07,-0.656 2.19,-0.008 9.35,0.566 17.7,0.539 2.19,0 3.78,-0.41 3.78,-1.797 -0.01,-0.996 -0.8,-1.777 -2.99,-1.777 -1.8,-0.195 -3.18,-0.195 -4.97,-0.586 -5.18,-1.379 -6.77,-4.746 -7,-14.289 -0.87,-25.449 -1.39,-69.793 -2.09,-105.184 -0.01,-4.57 -1.01,-6.164 -2.6,-6.152 -2.19,0.008 -4.77,2.195 -8.54,5.586 -11.1,10.183 -32.32,30.722 -48.79,46.668 -17.44,16.359 -36.86,37.082 -41.62,42.07 l 1.6,-68.992 c 0.36,-12.93 2.33,-17.109 5.9,-18.313 2.98,-0.996 6.36,-1.003 9.35,-1.218 1.79,-0.012 2.98,-0.606 2.97,-1.594 0,-1.395 -1.59,-1.992 -3.98,-1.981 -10.34,0.028 -17.29,0.645 -21.87,0.653 -2.18,0.012 -11.33,-0.555 -19.87,-0.535 -2.19,0.007 -3.78,0.203 -3.78,1.797 0.01,0.996 1,1.785 2.79,1.777 2.19,0.203 5.16,0.195 7.55,0.781 4.98,1.375 5.79,5.75 6.02,20.457 0.5,35.793 1.61,77.344 1.68,99.61"
         style="fill:#306ea9;fill-opacity:1;fill-rule:nonzero;stroke:none"
         id="path48" />
      <path
         d="m 1732.63,136.852 c -17.26,14.558 -21.78,33.261 -21.74,49.961 0.04,11.531 3.87,31.601 20.81,46.464 13.16,11.309 30.08,17.618 55.92,17.539 10.74,-0.031 17.5,-0.644 25.44,-1.855 6.77,-1.016 11.94,-2.227 17.31,-2.832 1.77,-0.207 2.57,-1.008 2.57,-2.004 0,-1.387 -0.41,-3.77 -0.83,-9.734 -0.21,-5.567 -0.24,-15.313 -0.64,-18.887 -0.21,-2.578 -0.61,-3.965 -2.21,-3.965 -1.39,0.008 -2.17,1.395 -2.16,3.777 -0.2,4.973 -1.76,10.938 -6.53,15.735 -5.74,6.172 -19.06,10.586 -35.16,10.633 -14.52,0.039 -24.26,-3.309 -31.84,-9.852 -12.16,-10.898 -15.98,-26.594 -16.03,-43.301 -0.11,-39.16 29.07,-59.531 54.12,-59.601 15.5,-0.047 24.25,1.523 31.03,9.062 3,3.164 4.99,7.942 5.81,11.504 0.79,2.988 1.4,3.586 2.79,3.574 1.2,0 1.78,-1.191 1.78,-2.586 -0.01,-2.187 -2.23,-17.285 -4.04,-23.449 -0.81,-2.988 -1.6,-3.769 -4.58,-4.961 -6.97,-2.761 -20.11,-3.719 -31.24,-3.691 -23.86,0.07 -44.32,4.699 -60.58,18.469"
         style="fill:#306ea9;fill-opacity:1;fill-rule:nonzero;stroke:none"
         id="path50" />
      <path
         d="m 1868.44,199.301 c 0.07,25.84 0.09,30.422 -0.3,35.988 -0.37,5.566 -1.76,7.754 -7.13,8.965 -1.58,0.398 -4.36,0.41 -6.76,0.613 -1.98,0 -2.97,0.606 -2.97,1.797 0,1.191 1.2,1.582 3.98,1.582 8.35,-0.027 16.3,-0.644 25.05,-0.672 5.37,-0.011 41.75,-0.117 44.93,0.067 3.38,0.39 6.36,0.781 7.95,0.976 1,0.196 2,0.793 2.79,0.793 1,0 1.18,-0.801 1.18,-1.594 0,-1.199 -1.2,-3.582 -1.62,-10.742 -0.2,-3.183 -0.41,-6.562 -0.82,-11.719 -0.01,-0.996 -0.41,-2.781 -2,-2.781 -1.19,0 -1.59,1.004 -1.78,3.192 0,0.793 0.01,3.379 -0.98,5.566 -1.18,3.184 -2.77,4.981 -11.31,5.996 -3.38,0.402 -21.28,0.852 -25.26,0.871 -0.79,0 -1.19,-0.597 -1.19,-1.789 l -0.11,-41.16 c -0.01,-1.191 0.18,-1.789 1.18,-1.789 4.18,-0.02 23.26,-0.066 27.63,0.129 4.97,0.371 7.57,0.957 9.16,2.754 1.21,1.582 2,2.176 2.8,2.176 0.79,0 1.19,-0.399 1.18,-1.395 0,-1.191 -0.81,-4.973 -1.43,-13.125 -0.01,-3.379 -0.62,-10.539 -0.63,-11.926 0,-1.394 -0.21,-3.183 -1.8,-3.172 -1.19,0 -1.78,1.786 -1.78,2.782 -0.2,1.593 -0.19,2.589 -0.58,4.582 -0.99,3.777 -2.97,6.367 -9.92,6.98 -3.59,0.41 -20.28,0.656 -24.65,0.676 -1,0 -1.2,-0.801 -1.2,-1.789 l -0.04,-12.93 c -0.01,-5.762 -0.25,-19.676 -0.07,-24.851 0.37,-11.731 2.94,-14.317 21.23,-14.368 4.58,-0.019 11.93,-0.039 16.31,1.934 4.58,2.18 6.58,5.547 7.99,12.707 0.41,1.785 0.81,2.773 2.19,2.773 1.4,0 1.4,-1.593 1.39,-3.378 -0.01,-4.375 -1.44,-16.504 -2.45,-19.883 -1.2,-4.367 -2.79,-4.367 -9.36,-4.348 -17.29,0.051 -32.2,1.086 -49.89,1.145 -7.16,0.019 -14.32,-0.559 -22.66,-0.539 -2.39,0.011 -3.58,0.605 -3.57,1.796 0,0.801 0.6,1.789 2.98,1.778 2.39,0.207 4.57,0.195 6.16,0.578 3.6,0.789 4.6,4.57 5.21,10.535 0.81,6.953 0.85,19.875 0.89,34.395 l 0.08,29.824"
         style="fill:#306ea9;fill-opacity:1;fill-rule:nonzero;stroke:none"
         id="path52" />
      <path
         d="m 2088.34,181.578 c 0.98,0 1.19,0.594 0.98,1.192 l -17.74,49.16 c -0.6,1.785 -1.39,2.383 -2.19,0.008 l -18.44,-48.868 c -0.19,-0.789 0,-1.386 0.8,-1.386 z m -40.6,-9.824 c -0.99,0 -1.39,-0.402 -1.79,-1.594 l -10.82,-28.406 c -2,-4.961 -3.01,-9.727 -3.02,-12.109 0,-3.586 1.78,-6.172 7.94,-6.192 0.99,0 2.19,-0.012 2.98,-0.012 2.39,-0.007 2.98,-0.398 2.98,-1.589 -0.01,-1.594 -1.2,-1.985 -3.39,-1.985 -6.35,0.02 -14.91,0.645 -21.07,0.656 -2.19,0.008 -13.12,-0.558 -23.46,-0.527 -2.59,0.008 -3.78,0.41 -3.77,2 0,1.192 1.19,1.582 2.79,1.574 1.78,0 4.17,0.196 5.76,0.391 9.16,1.16 12.96,7.91 16.95,17.84 l 50.26,124.719 c 2.41,5.769 3.8,7.949 5.59,7.949 1.59,-0.012 2.98,-1.809 4.95,-6.387 4.75,-10.949 36.32,-92.148 48.97,-122.414 7.5,-17.91 13.26,-20.711 17.43,-21.719 2.98,-0.605 5.96,-0.82 8.35,-0.82 1.59,-0.008 2.58,-0.399 2.58,-1.59 -0.01,-1.594 -1.79,-1.992 -9.16,-1.973 -7.15,0.028 -23.05,0.067 -38.96,0.516 -3.58,0.207 -4.57,0.402 -4.56,1.602 0,0.988 0.79,1.582 2.78,1.777 1.39,0.391 2.8,2.18 1.81,4.57 l -15.79,42.188 c -0.4,0.996 -1,1.406 -1.99,1.406 l -44.34,0.129"
         style="fill:#306ea9;fill-opacity:1;fill-rule:nonzero;stroke:none"
         id="path54" />
      <path
         d="m 2282.9,131.52 c -0.02,-5.567 -0.41,-5.969 -2.6,-7.161 -10.96,-5.32 -28.26,-7.265 -42.19,-7.226 -44.13,0.117 -81.45,20.109 -81.32,66.437 0.08,27.235 14.85,45.887 30.77,55.184 17.12,9.687 33.44,10.84 47.76,10.793 11.92,-0.031 26.23,-1.856 30.6,-2.863 3.98,-0.614 10.14,-1.621 14.32,-1.836 1.97,-0.196 2.18,-1.192 2.18,-2.383 -0.01,-1.992 -1.42,-6.961 -1.48,-28.438 -0.01,-2.781 -0.6,-3.574 -1.99,-3.562 -1.4,0 -1.59,0.996 -1.8,2.383 -0.58,3.582 -1.16,8.359 -5.32,12.949 -4.75,6.562 -18.85,14.558 -39.32,14.617 -10.35,0.031 -22.88,-1.121 -34.23,-10.84 -9.37,-7.918 -15.18,-20.027 -15.24,-40.117 -0.1,-34.988 22.1,-62.891 59.08,-62.996 4.17,-0.012 9.95,-0.02 13.73,1.941 2.58,0.996 3.19,3.176 3.19,5.957 l 0.05,14.317 c 0.02,8.156 0.04,14.121 -0.15,19.492 -0.18,6.562 -1.76,9.746 -7.72,10.559 -1.6,0.203 -4.18,0.41 -6.76,0.613 -1.58,0 -2.78,0.812 -2.78,1.808 0,1.192 1.2,1.582 3.77,1.571 9.56,-0.02 20.88,-0.457 26.25,-0.469 5.57,-0.02 15.11,0.352 21.67,0.344 2.19,-0.012 3.58,-0.41 3.58,-1.602 0,-0.996 -0.99,-1.594 -2.39,-1.797 -2.19,-0.187 -2.59,-0.187 -4.78,-0.371 -4.97,-0.586 -6.37,-3.769 -6.57,-9.531 -0.23,-5.363 -0.25,-11.926 -0.27,-20.48 l -0.04,-17.293"
         style="fill:#306ea9;fill-opacity:1;fill-rule:nonzero;stroke:none"
         id="path56" />
      <path
         d="m 2327.07,198.004 c 0.06,25.84 0.08,30.418 -0.31,35.984 -0.37,5.567 -1.75,7.754 -7.13,8.965 -1.58,0.402 -4.36,0.41 -6.75,0.617 -1.99,0.008 -2.98,0.606 -2.97,1.797 0,1.192 1.19,1.59 3.97,1.582 8.35,-0.031 16.3,-0.644 25.05,-0.676 5.37,-0.007 41.76,-0.117 44.94,0.071 3.38,0.39 6.36,0.789 7.95,0.976 1,0.196 2,0.801 2.79,0.789 1,0 1.19,-0.8 1.19,-1.589 0,-1.204 -1.2,-3.586 -1.62,-10.743 -0.21,-3.183 -0.41,-6.554 -0.82,-11.718 -0.01,-0.996 -0.42,-2.786 -2.01,-2.786 -1.19,0.012 -1.59,1.008 -1.77,3.196 0,0.789 0.01,3.379 -0.99,5.566 -1.18,3.184 -2.76,4.981 -11.31,5.996 -3.38,0.399 -21.28,0.848 -25.25,0.867 -0.79,0 -1.19,-0.593 -1.19,-1.785 l -0.12,-41.164 c -0.01,-1.191 0.18,-1.785 1.18,-1.785 4.18,-0.019 23.26,-0.07 27.64,0.125 4.97,0.371 7.57,0.957 9.16,2.754 1.2,1.582 1.99,2.18 2.79,2.18 0.79,0 1.19,-0.403 1.18,-1.399 0,-1.191 -0.81,-4.969 -1.42,-13.125 -0.01,-3.379 -0.63,-10.535 -0.64,-11.922 0,-1.398 -0.2,-3.183 -1.8,-3.175 -1.19,0 -1.77,1.789 -1.77,2.785 -0.21,1.59 -0.2,2.586 -0.59,4.578 -0.99,3.781 -2.97,6.367 -9.92,6.984 -3.59,0.418 -20.27,0.653 -24.65,0.672 -1,0 -1.2,-0.801 -1.2,-1.785 l -0.04,-12.93 c -0.01,-5.761 -0.24,-19.679 -0.07,-24.855 0.37,-11.727 2.94,-14.317 21.23,-14.363 4.58,-0.02 11.94,-0.04 16.31,1.933 4.58,2.176 6.58,5.547 7.99,12.703 0.41,1.789 0.81,2.785 2.2,2.774 1.39,0 1.39,-1.59 1.38,-3.379 -0.01,-4.375 -1.44,-16.504 -2.45,-19.883 -1.2,-4.363 -2.79,-4.363 -9.35,-4.344 -17.3,0.047 -32.21,1.082 -49.91,1.141 -7.15,0.019 -14.31,-0.555 -22.66,-0.535 -2.38,0.007 -3.58,0.605 -3.57,1.797 0,0.8 0.6,1.785 2.98,1.777 2.39,0.203 4.57,0.195 6.16,0.586 3.6,0.789 4.6,4.558 5.21,10.527 0.81,6.953 0.85,19.871 0.89,34.395 l 0.09,29.824"
         style="fill:#306ea9;fill-opacity:1;fill-rule:nonzero;stroke:none"
         id="path58" />
      <path
         d="m 2432.22,243.227 c 0.01,3.781 0.62,6.164 2.6,6.164 1.8,-0.012 3.37,-2.004 6.36,-4.993 3.17,-2.793 26.36,-26.914 54.71,-53.64 12.89,-12.363 35.1,-35.09 38.27,-37.883 l -1.38,73.566 c -0.18,10.137 -1.55,13.536 -6.32,15.332 -2.59,0.801 -6.56,0.809 -8.94,1.024 -2.19,0 -2.99,0.996 -2.98,1.992 0,1.399 1.99,1.582 4.37,1.574 8.75,-0.019 17.7,-0.644 22.07,-0.656 2.19,-0.008 9.35,0.566 17.7,0.547 2.18,-0.008 3.78,-0.41 3.78,-1.797 -0.01,-0.996 -0.8,-1.785 -2.99,-1.777 -1.8,-0.203 -3.19,-0.203 -4.97,-0.594 -5.18,-1.379 -6.77,-4.746 -7,-14.289 -0.87,-25.449 -1.39,-69.793 -2.09,-105.176 -0.01,-4.57 -1.01,-6.16 -2.6,-6.16 -2.19,0.008 -4.77,2.207 -8.54,5.594 -11.1,10.175 -32.32,30.715 -48.78,46.66 -17.45,16.359 -36.87,37.09 -41.63,42.07 l 1.59,-68.992 c 0.37,-12.93 2.34,-17.102 5.91,-18.301 2.98,-1.008 6.36,-1.015 9.35,-1.23 1.79,0 2.98,-0.606 2.98,-1.594 -0.01,-1.395 -1.6,-1.98 -3.99,-1.98 -10.34,0.027 -17.29,0.644 -21.87,0.664 -2.18,0 -11.33,-0.567 -19.88,-0.547 -2.18,0.008 -3.77,0.215 -3.76,1.804 0,0.996 0.99,1.778 2.78,1.778 2.19,0.195 5.16,0.187 7.55,0.781 4.98,1.367 5.79,5.742 6.02,20.461 0.51,35.789 1.62,77.332 1.68,99.598"
         style="fill:#306ea9;fill-opacity:1;fill-rule:nonzero;stroke:none"
         id="path60" />
      <path
         d="m 2600.96,134.391 c -17.25,14.558 -21.77,33.269 -21.73,49.968 0.04,11.536 3.87,31.602 20.81,46.465 13.16,11.301 30.08,17.61 55.92,17.539 10.74,-0.039 17.5,-0.652 25.44,-1.863 6.77,-1.016 11.94,-2.219 17.31,-2.832 1.77,-0.195 2.57,-1.008 2.57,-2.004 0,-1.387 -0.41,-3.758 -0.83,-9.726 -0.21,-5.567 -0.24,-15.313 -0.64,-18.887 -0.21,-2.586 -0.62,-3.973 -2.21,-3.973 -1.39,0.008 -2.17,1.395 -2.16,3.777 -0.2,4.973 -1.76,10.95 -6.53,15.735 -5.74,6.18 -19.06,10.594 -35.16,10.633 -14.52,0.039 -24.26,-3.309 -31.84,-9.852 -12.16,-10.898 -15.98,-26.594 -16.03,-43.301 -0.11,-39.16 29.07,-59.523 54.12,-59.601 15.5,-0.039 24.25,1.523 31.03,9.062 3,3.164 4.99,7.942 5.81,11.516 0.79,2.976 1.4,3.574 2.79,3.574 1.2,-0.012 1.78,-1.203 1.78,-2.598 -0.01,-2.187 -2.23,-17.285 -4.04,-23.449 -0.81,-2.976 -1.6,-3.769 -4.58,-4.949 -6.97,-2.766 -20.11,-3.723 -31.24,-3.691 -23.86,0.066 -44.32,4.695 -60.59,18.457"
         style="fill:#306ea9;fill-opacity:1;fill-rule:nonzero;stroke:none"
         id="path62" />
      <path
         d="m 2769.3,161.754 c 0.02,8.953 -1.75,12.723 -4.13,17.703 -2.18,4.375 -24.34,39.836 -30.48,48.801 -4.75,6.777 -8.51,9.961 -12.49,11.961 -1.98,1.008 -4.36,1.808 -6.35,2.011 -1.4,0.012 -2.98,0.606 -2.97,1.797 0,0.996 0.79,1.789 2.98,1.778 3.97,-0.008 17.5,-0.645 23.45,-0.664 3.38,-0.008 11.34,0.566 19.69,0.547 1.79,-0.008 2.78,-0.606 2.78,-1.602 -0.01,-0.996 -0.6,-1.59 -3.19,-2.176 -2.19,-0.402 -3.57,-1.379 -3.58,-2.773 0,-1.387 0.78,-3.184 2.17,-5.578 2.37,-5.164 26.12,-45.196 28.88,-49.981 3.6,6.945 23.38,40.09 25.98,45.656 1.8,3.77 2.6,6.758 2.61,8.946 0,1.59 -0.79,2.976 -4.17,3.789 -1.59,0.39 -3.18,0.996 -3.17,1.992 0,1.191 0.8,1.582 3.18,1.582 6.17,-0.02 11.73,-0.637 17.1,-0.645 3.58,-0.011 15.51,0.547 18.89,0.536 1.99,0 3.38,-0.606 3.38,-1.602 -0.01,-1.191 -1.4,-1.973 -3.58,-1.973 -1.6,-0.195 -4.78,-0.586 -7.56,-1.765 -3.79,-1.778 -5.78,-3.567 -9.38,-7.93 -5.78,-6.738 -30.55,-46.836 -33.54,-53.984 -2.61,-6.348 -2.63,-11.914 -2.64,-16.692 l -0.04,-13.515 c -0.01,-2.782 -0.03,-9.551 0.35,-16.504 0.39,-4.774 1.57,-8.758 7.13,-9.364 2.58,-0.605 6.16,-0.617 8.75,-0.832 1.98,-0.007 2.98,-0.996 2.98,-1.796 -0.01,-1.192 -1.01,-1.786 -3.19,-1.778 -11.33,0.031 -23.46,0.664 -28.43,0.676 -4.38,0.02 -16.1,-0.547 -22.67,-0.527 -2.59,0.007 -3.97,0.41 -3.96,1.797 0,0.8 0.98,1.589 2.78,1.777 1.98,0.203 4.17,0.195 5.76,0.789 3.99,0.578 5.79,4.152 6,9.121 0.61,7.16 0.63,13.926 0.64,16.711 l 0.04,13.711"
         style="fill:#306ea9;fill-opacity:1;fill-rule:nonzero;stroke:none"
         id="path64" />
    </g>
  </g>
</svg>
